<svg width="332" height="374" viewBox="0 0 332 374" fill="none" xmlns="http://www.w3.org/2000/svg">
<path d="M17.0541 234.747H2.34509V239.391H17.0541V234.747Z" fill="#7BAABF"/>
<path d="M231.884 370.797C231.814 370.797 231.745 370.797 231.675 370.785C230.746 370.669 230.073 369.821 230.189 368.893L247.197 227.55C247.313 226.621 248.149 225.959 249.089 226.064C250.018 226.18 261.093 227.027 260.989 227.956L233.567 369.299C233.463 370.17 232.732 370.797 231.884 370.797Z" fill="#BADAEF"/>
<path d="M317.967 370.796C318.037 370.796 318.106 370.796 318.176 370.785C319.105 370.669 319.778 369.821 319.662 368.893L302.643 227.549C302.527 226.621 301.691 225.959 300.75 226.063C299.822 226.179 288.746 227.027 288.851 227.956L316.272 369.299C316.377 370.169 317.108 370.796 317.967 370.796Z" fill="#BADAEF"/>
<path d="M303.455 226.052H246.396V229.442H303.455V226.052Z" fill="#B4D9ED"/>
<path d="M303.455 255.412H246.396V258.802H303.455V255.412Z" fill="#BADAEF"/>
<path d="M303.56 226.249H246.268C244.794 226.249 243.609 225.053 243.609 223.591C243.609 222.116 244.805 220.932 246.268 220.932H303.56C305.034 220.932 306.218 222.128 306.218 223.591C306.23 225.065 305.034 226.249 303.56 226.249Z" fill="#69AAEC"/>
<path d="M268.627 153.911C268.627 153.911 203.128 65.4255 223.676 46.5255C244.225 27.6256 274.281 94.1933 268.627 153.911Z" fill="#1D9F9D"/>
<path d="M229.876 56.9738C236.272 66.6443 241.984 76.7792 246.918 87.274C251.55 97.1419 255.532 107.323 258.876 117.702C261.952 127.245 264.506 136.962 266.584 146.76C268.43 155.502 269.893 164.313 270.984 173.183C271.901 180.601 272.552 188.054 273.086 195.507C273.144 196.32 273.248 197.144 273.295 197.957C273.318 198.41 274.026 198.41 274.003 197.957C273.84 194.521 273.77 191.073 273.538 187.636C273.271 183.77 272.935 179.916 272.505 176.062C271.53 167.297 270.218 158.578 268.523 149.918C266.608 140.154 264.216 130.495 261.291 120.999C258.098 110.644 254.302 100.474 249.809 90.6059C245.026 80.0995 239.511 69.8949 233.126 60.2824C232.29 59.0286 231.455 57.798 230.596 56.5558C230.282 56.1379 229.586 56.5326 229.876 56.9738Z" fill="#0E7C74"/>
<path d="M264.901 110.795C264.634 114.788 264.599 118.794 264.436 122.799C264.367 124.633 264.297 126.467 264.216 128.29C264.146 129.904 263.856 131.68 264.135 133.27C264.193 133.584 264.634 133.537 264.715 133.27C264.959 132.527 264.982 131.668 265.063 130.902C265.156 130.031 265.191 129.161 265.249 128.29C265.365 126.456 265.481 124.633 265.551 122.799C265.702 118.805 265.841 114.788 265.597 110.795C265.574 110.354 264.936 110.354 264.901 110.795Z" fill="#0E7C74"/>
<path d="M254.696 80.4829C254.429 84.4765 254.395 88.4817 254.232 92.4869C254.162 94.3212 254.093 96.1554 254.011 97.9781C253.942 99.5918 253.652 101.368 253.93 102.958C253.988 103.272 254.429 103.225 254.511 102.958C254.754 102.215 254.778 101.356 254.859 100.59C254.952 99.7195 254.987 98.8488 255.045 97.9781C255.161 96.1438 255.277 94.3212 255.347 92.4869C255.497 88.4933 255.637 84.4765 255.393 80.4829C255.37 80.0301 254.731 80.0301 254.696 80.4829Z" fill="#0E7C74"/>
<path d="M239.744 53.1542C239.976 56.5558 240.208 59.9573 240.266 63.3588C240.289 65.0886 240.301 66.83 240.278 68.5598C240.254 70.2083 239.976 72.0194 240.266 73.6563C240.324 73.9697 240.765 73.9233 240.847 73.6563C241.357 72.089 241.264 70.1967 241.323 68.5598C241.381 66.7836 241.415 65.0073 241.381 63.2311C241.311 59.8412 241.125 56.3932 240.429 53.0614C240.347 52.6783 239.72 52.7595 239.744 53.1542Z" fill="#0E7C74"/>
<path d="M228.158 69.0706C230.944 70.9746 233.742 72.8553 236.435 74.8869C237.828 75.9433 239.221 77.0114 240.579 78.1259C241.253 78.6715 241.903 79.2288 242.565 79.7744C243.192 80.2852 243.83 80.8773 244.55 81.2604C244.805 81.3997 245.142 81.1095 244.968 80.8425C244.051 79.4958 242.565 78.4277 241.322 77.3829C239.976 76.2452 238.618 75.1423 237.213 74.0859C234.461 72.0078 231.605 69.9878 228.517 68.467C228.099 68.2696 227.774 68.8152 228.158 69.0706Z" fill="#0E7C74"/>
<path d="M230.178 74.3762C232.964 76.2801 235.762 78.1608 238.455 80.1924C239.848 81.2489 241.241 82.3169 242.599 83.4314C243.273 83.9771 243.923 84.5343 244.585 85.08C245.212 85.5908 245.85 86.1828 246.57 86.5659C246.825 86.7053 247.162 86.415 246.988 86.148C246.071 84.8013 244.585 83.7333 243.342 82.6884C241.996 81.5507 240.638 80.4478 239.233 79.3914C236.481 77.3133 233.625 75.2933 230.537 73.7725C230.131 73.5635 229.806 74.1208 230.178 74.3762Z" fill="#0E7C74"/>
<path d="M241.427 101.089C244.213 102.993 247.011 104.874 249.704 106.906C251.097 107.962 252.491 109.03 253.849 110.145C254.522 110.69 255.172 111.247 255.834 111.793C256.461 112.304 257.099 112.896 257.819 113.279C258.075 113.418 258.411 113.128 258.237 112.861C257.32 111.514 255.834 110.446 254.592 109.402C253.245 108.264 251.887 107.161 250.482 106.105C247.731 104.026 244.875 102.006 241.787 100.486C241.369 100.277 241.044 100.834 241.427 101.089Z" fill="#0E7C74"/>
<path d="M285.438 135.546C285.438 135.546 348.592 45.3646 327.545 27.0103C306.497 8.6676 278.228 76.0015 285.438 135.546Z" fill="#1D9F9D"/>
<path d="M320.916 37.2263C314.507 47.0013 308.993 57.3103 304.245 67.9909C299.81 77.9865 296.072 88.2723 292.984 98.7555C290.14 108.403 287.841 118.213 286.053 128.115C284.463 136.95 283.255 145.843 282.419 154.782C281.723 162.247 281.282 169.746 281.212 177.234C281.2 178.059 281.247 178.883 281.235 179.707C281.224 180.16 281.932 180.16 281.943 179.707C282.013 176.294 282.268 172.858 282.477 169.456C282.71 165.625 282.988 161.794 283.325 157.963C284.079 149.233 285.194 140.526 286.68 131.888C288.352 122.137 290.499 112.454 293.158 102.912C296.06 92.4865 299.578 82.2471 303.734 72.2631C308.169 61.6058 313.428 51.3083 319.337 41.394C320.091 40.1402 320.858 38.8864 321.624 37.6442C321.903 37.1914 321.206 36.7851 320.916 37.2263Z" fill="#0E7C74"/>
<path d="M287.33 92.3589C287.191 96.3525 287.435 100.358 287.69 104.351C287.806 106.186 287.969 108.008 288.131 109.843C288.201 110.667 288.27 111.503 288.375 112.339C288.468 113.151 288.526 114.057 288.805 114.823C288.897 115.078 289.339 115.148 289.385 114.823C289.617 113.221 289.292 111.456 289.176 109.843C289.037 108.02 288.932 106.186 288.816 104.351C288.549 100.358 288.41 96.3525 288.038 92.3589C287.992 91.9178 287.353 91.9062 287.33 92.3589Z" fill="#0E7C74"/>
<path d="M296.734 61.7803C296.594 65.7739 296.838 69.7791 297.093 73.7727C297.21 75.607 297.372 77.4296 297.535 79.2639C297.604 80.0882 297.674 80.924 297.778 81.7599C297.871 82.5726 297.929 83.4781 298.208 84.2443C298.301 84.4997 298.742 84.5693 298.788 84.2443C299.021 82.6422 298.696 80.8776 298.579 79.2639C298.44 77.4412 298.336 75.607 298.22 73.7727C297.953 69.7791 297.813 65.7739 297.442 61.7803C297.395 61.3391 296.745 61.3275 296.734 61.7803Z" fill="#0E7C74"/>
<path d="M310.978 33.9877C310.363 37.3312 310.27 40.7791 310.293 44.1806C310.305 45.9569 310.374 47.7331 310.491 49.5093C310.595 51.1346 310.549 53.0385 311.094 54.5942C311.187 54.8496 311.628 54.9192 311.675 54.5942C311.918 52.9921 311.617 51.2507 311.547 49.637C311.466 47.8608 311.431 46.0846 311.419 44.3083C311.384 40.8952 311.535 37.4937 311.675 34.0806C311.686 33.6974 311.048 33.593 310.978 33.9877Z" fill="#0E7C74"/>
<path d="M323.307 49.0796C320.289 50.6584 317.526 52.7365 314.856 54.8494C313.486 55.9407 312.151 57.0784 310.827 58.2393C309.585 59.3422 308.076 60.4683 307.17 61.8846C307.008 62.1516 307.333 62.4419 307.588 62.3026C308.981 61.5131 310.166 60.2013 311.373 59.1564C312.708 58.0187 314.066 56.9042 315.436 55.8013C318.106 53.6652 320.881 51.6801 323.656 49.6833C324.027 49.4162 323.714 48.859 323.307 49.0796Z" fill="#0E7C74"/>
<path d="M321.426 54.4316C318.408 56.0105 315.645 58.0885 312.975 60.2014C311.605 61.2927 310.27 62.4304 308.946 63.5914C307.704 64.6942 306.195 65.8203 305.29 67.2367C305.127 67.5037 305.452 67.7939 305.707 67.6546C307.101 66.8652 308.285 65.5533 309.492 64.5085C310.827 63.3708 312.185 62.2563 313.555 61.1534C316.225 59.0173 319 57.0321 321.775 55.0353C322.135 54.7683 321.833 54.211 321.426 54.4316Z" fill="#0E7C74"/>
<path d="M310.885 81.4231C307.867 83.002 305.104 85.0801 302.434 87.193C301.064 88.2842 299.729 89.4219 298.405 90.5829C297.163 91.6857 295.654 92.8118 294.749 94.2282C294.586 94.4952 294.911 94.7854 295.166 94.6461C296.56 93.8567 297.744 92.5448 298.951 91.5C300.286 90.3623 301.644 89.2478 303.014 88.1449C305.684 86.0088 308.459 84.0236 311.234 82.0268C311.605 81.7714 311.292 81.2142 310.885 81.4231Z" fill="#0E7C74"/>
<path d="M279.064 111.805C279.064 111.805 215.503 21.9139 236.47 3.46673C257.436 -14.9804 286.007 52.2258 279.064 111.805Z" fill="#259E78"/>
<path d="M242.437 14.0546C248.636 23.8877 254.139 34.1619 258.841 44.7844C263.252 54.7336 266.99 64.9846 270.102 75.4097C272.981 85.0338 275.314 94.8205 277.183 104.688C278.832 113.453 280.097 122.276 280.991 131.146C281.746 138.599 282.233 146.064 282.605 153.54C282.64 154.341 282.733 155.142 282.756 155.932C282.768 156.385 283.476 156.385 283.464 155.932C283.383 152.461 283.383 149.001 283.22 145.541C283.046 141.71 282.791 137.879 282.442 134.048C281.665 125.283 280.539 116.553 279.041 107.881C277.346 98.0595 275.152 88.3309 272.435 78.7532C269.475 68.3513 265.911 58.1235 261.65 48.1743C257.088 37.5518 251.806 27.2079 245.606 17.4329C244.794 16.1559 243.981 14.8905 243.145 13.6367C242.855 13.2071 242.158 13.6018 242.437 14.0546Z" fill="#0E7C74"/>
<path d="M276.278 68.6297C275.918 72.6117 275.802 76.6285 275.558 80.6221C275.442 82.4563 275.349 84.279 275.221 86.1133C275.117 87.7153 274.792 89.4916 275.036 91.0937C275.082 91.4187 275.535 91.3491 275.616 91.0937C275.872 90.3507 275.918 89.5032 276.011 88.7254C276.115 87.8547 276.173 86.984 276.255 86.1133C276.417 84.2906 276.568 82.4563 276.673 80.6221C276.905 76.6401 277.137 72.6233 276.974 68.6297C276.963 68.1769 276.313 68.1885 276.278 68.6297Z" fill="#0E7C74"/>
<path d="M266.735 38.0857C266.375 42.0677 266.259 46.0845 266.015 50.0781C265.899 51.9124 265.806 53.7351 265.679 55.5693C265.574 57.1714 265.249 58.9476 265.493 60.5497C265.539 60.8748 265.992 60.8051 266.073 60.5497C266.329 59.8067 266.375 58.9592 266.468 58.1814C266.573 57.3107 266.631 56.44 266.712 55.5693C266.874 53.7467 267.025 51.9124 267.13 50.0781C267.362 46.0961 267.594 42.0793 267.432 38.0857C267.42 37.633 266.782 37.6446 266.735 38.0857Z" fill="#0E7C74"/>
<path d="M252.386 10.4554C252.537 13.8569 252.711 17.2701 252.688 20.6832C252.676 22.413 252.653 24.1544 252.584 25.8842C252.514 27.5327 252.212 29.3321 252.467 30.969C252.514 31.2941 252.967 31.2244 253.048 30.969C253.315 30.2144 253.361 29.3437 253.443 28.5427C253.524 27.6604 253.57 26.7665 253.628 25.8726C253.733 24.0963 253.803 22.3201 253.803 20.5439C253.803 17.154 253.698 13.706 253.071 10.3625C253.001 9.96783 252.363 10.0607 252.386 10.4554Z" fill="#0E7C74"/>
<path d="M240.452 26.1049C243.238 28.0901 246.024 30.0521 248.706 32.1766C250.041 33.2447 251.376 34.3127 252.688 35.4272C253.338 35.9844 253.988 36.5533 254.638 37.1222C255.254 37.6446 255.881 38.2483 256.589 38.643C256.844 38.7823 257.169 38.4921 257.007 38.225C256.124 36.8551 254.65 35.7523 253.443 34.6842C252.096 33.5001 250.726 32.3391 249.31 31.2246C246.64 29.1234 243.853 27.0685 240.835 25.5013C240.405 25.2923 240.092 25.8495 240.452 26.1049Z" fill="#0E7C74"/>
<path d="M242.367 31.4453C245.153 33.4305 247.94 35.3924 250.621 37.5169C251.957 38.585 253.292 39.653 254.603 40.7675C255.254 41.3248 255.904 41.8936 256.554 42.4625C257.169 42.9849 257.796 43.5886 258.504 43.9833C258.76 44.1226 259.085 43.8324 258.922 43.5654C258.04 42.1955 256.565 41.0926 255.358 40.0245C254.011 38.8404 252.641 37.6795 251.225 36.565C248.555 34.4637 245.769 32.4088 242.75 30.8416C242.309 30.6326 241.996 31.1899 242.367 31.4453Z" fill="#0E7C74"/>
<path d="M253.025 58.4022C255.811 60.3874 258.597 62.3494 261.279 64.4739C262.614 65.542 263.949 66.61 265.261 67.7245C265.911 68.2818 266.561 68.8506 267.211 69.4195C267.826 69.9419 268.453 70.5456 269.162 70.9403C269.417 71.0796 269.742 70.7894 269.579 70.5223C268.697 69.1525 267.223 68.0496 266.015 66.9815C264.669 65.7974 263.299 64.6364 261.883 63.5219C259.212 61.4207 256.426 59.3658 253.408 57.7986C252.967 57.578 252.653 58.1352 253.025 58.4022Z" fill="#0E7C74"/>
<path d="M273.167 138.03C273.167 138.03 312.278 84.2792 299.775 72.9601C287.272 61.6527 269.463 101.995 273.167 138.03Z" fill="#3FC7A1"/>
<path d="M295.515 78.9736C287.736 90.2114 281.978 102.773 277.88 115.787C274.42 126.781 272.168 138.135 270.891 149.593C270.346 154.562 269.835 159.647 269.997 164.65C270.009 165.115 270.659 165.091 270.705 164.65C271.181 160.308 271.402 155.932 271.866 151.59C272.424 146.307 273.201 141.048 274.2 135.836C276.557 123.553 280.144 111.491 285.159 100.021C288.282 92.8699 292.02 85.974 296.223 79.3915C296.513 78.9387 295.816 78.544 295.515 78.9736Z" fill="#0E7C74"/>
<path d="M274.78 111.979C274.653 114.405 274.757 116.843 274.873 119.269C274.92 120.361 275.001 121.452 275.082 122.543C275.152 123.53 275.164 124.586 275.431 125.55C275.489 125.759 275.767 125.701 275.79 125.504C275.907 124.494 275.756 123.437 275.709 122.439C275.651 121.347 275.605 120.245 275.547 119.153C275.431 116.762 275.396 114.37 275.21 111.99C275.187 111.7 274.792 111.7 274.78 111.979Z" fill="#0E7C74"/>
<path d="M280.782 93.6131C280.655 96.0395 280.759 98.4774 280.875 100.904C280.922 101.995 281.003 103.086 281.084 104.178C281.154 105.164 281.165 106.221 281.433 107.184C281.491 107.393 281.769 107.335 281.792 107.138C281.908 106.128 281.758 105.072 281.711 104.073C281.653 102.982 281.607 101.879 281.549 100.788C281.433 98.3962 281.398 96.0047 281.212 93.6247C281.189 93.3461 280.806 93.3461 280.782 93.6131Z" fill="#0E7C74"/>
<path d="M289.687 76.9884C289.28 79.0084 289.187 81.0865 289.164 83.1297C289.153 84.2094 289.176 85.289 289.222 86.3687C289.269 87.3671 289.245 88.4584 289.536 89.4336C289.594 89.6425 289.872 89.5845 289.896 89.3871C290.023 88.4003 289.884 87.3671 289.861 86.3803C289.838 85.3006 289.826 84.221 289.838 83.1413C289.861 81.1097 289.988 79.0781 290.105 77.0464C290.116 76.8142 289.745 76.7562 289.687 76.9884Z" fill="#0E7C74"/>
<path d="M296.966 86.2296C295.097 87.1699 293.378 88.4005 291.73 89.6775C290.917 90.3044 290.116 90.9545 289.338 91.6279C288.572 92.278 287.667 92.9513 287.098 93.7872C286.993 93.9497 287.202 94.1239 287.353 94.0426C288.201 93.5666 288.921 92.812 289.664 92.1967C290.499 91.5002 291.358 90.8268 292.229 90.1651C293.843 88.9229 295.526 87.7736 297.198 86.6127C297.407 86.4385 297.221 86.1135 296.966 86.2296Z" fill="#0E7C74"/>
<path d="M295.77 89.4452C293.901 90.3856 292.183 91.6162 290.534 92.8932C289.722 93.5201 288.92 94.1702 288.143 94.8436C287.376 95.4937 286.471 96.167 285.902 97.0029C285.798 97.1654 286.007 97.3396 286.157 97.2583C287.005 96.7823 287.725 96.0277 288.468 95.4124C289.304 94.7159 290.163 94.0425 291.033 93.3808C292.647 92.1386 294.33 90.9893 296.002 89.8284C296.211 89.6542 296.014 89.3175 295.77 89.4452Z" fill="#0E7C74"/>
<path d="M289.118 105.629C287.249 106.569 285.531 107.8 283.882 109.077C283.069 109.703 282.268 110.354 281.491 111.027C280.724 111.677 279.819 112.35 279.25 113.186C279.145 113.349 279.354 113.523 279.505 113.442C280.353 112.966 281.073 112.211 281.816 111.596C282.651 110.899 283.511 110.226 284.381 109.564C285.995 108.322 287.678 107.173 289.35 106.012C289.547 105.838 289.362 105.501 289.118 105.629Z" fill="#0E7C74"/>
<path d="M299.427 177.118L299.148 178.976L298.568 182.935L292.902 220.932H259.131L253.477 182.935L252.885 178.976L252.607 177.118H299.427Z" fill="#F7BF38"/>
<path d="M299.148 178.976L298.568 182.935H253.477L252.885 178.976H299.148Z" fill="#F49A38"/>
<path d="M300.089 180.683H251.945C250.401 180.683 249.147 179.429 249.147 177.885C249.147 176.341 250.401 175.087 251.945 175.087H300.089C301.633 175.087 302.887 176.341 302.887 177.885C302.887 179.44 301.633 180.683 300.089 180.683Z" fill="#F7BF38"/>
<path d="M54.3431 334.796C38.3571 334.796 24.1822 337.536 18.8071 338.708C17.4604 338.998 16.5317 340.206 16.5665 341.587C16.7522 347.253 17.4836 362.368 20.3511 377.82C23.8339 396.534 33.6322 409.037 44.5797 409.037H54.3431H54.3664H64.1298C75.0773 409.037 84.8756 396.534 88.3584 377.82C91.2259 362.38 91.9573 347.276 92.143 341.599C92.1894 340.217 91.2491 339.01 89.8908 338.72C84.3996 337.547 69.888 334.796 54.3431 334.796Z" fill="#69AAEC"/>
<g opacity="0.55">
<path opacity="0.55" d="M79.3263 220.92C78.2699 218.923 76.2034 217.298 73.9512 217.461C72.3607 217.577 70.9792 218.517 69.4584 219.005C67.9492 219.492 65.9292 219.295 65.2675 217.844C64.9308 217.124 65.0469 216.253 65.3487 215.522C65.964 214.047 67.3571 212.933 68.936 212.654C70.5033 212.376 72.2098 212.956 73.2895 214.129C71.7222 210.565 68.1582 208.045 64.3271 207.372C61.0649 206.803 55.5853 207.477 53.0197 209.845C50.9068 211.784 51.2667 215.29 51.9864 218.192C51.5569 218.529 51.0925 218.831 50.5933 219.051C48.9796 219.771 47.1802 220.026 45.5201 220.642C41.0389 222.313 38.4036 227.398 39.3439 232.03C40.6558 238.404 46.4372 245.195 52.8803 246.136C51.0112 245.869 50.93 241.411 52.3463 238.949C53.7627 236.488 56.6766 236.024 56.8159 240.691C56.8391 241.469 56.6882 242.235 56.7346 243.001C56.8972 245.335 58.9868 247.169 61.2506 247.761C63.5028 248.353 65.8944 247.981 68.193 247.529C67.4268 246.089 66.1498 245.009 65.1049 243.756C64.0601 242.513 63.201 240.911 63.5145 239.309C64.629 239.472 65.0585 240.795 65.6622 241.747C67.6358 244.859 71.7919 243.373 74.6362 242.699C77.91 241.921 81.7643 241.051 84.2951 243.268C83.8656 240.958 83.4244 238.624 82.4028 236.5C81.3812 234.387 79.7094 232.483 77.4921 231.705C76.1454 231.241 74.6362 231.194 73.3824 230.509C70.6542 229.012 71.908 226.272 74.6362 226.121C77.0625 225.982 80.3247 227.596 80.9632 230.045C80.1738 226.969 80.9052 223.915 79.3263 220.92Z" fill="#42C6A1"/>
<path opacity="0.55" d="M52.3811 219.098C56.9319 219.307 60.4263 225.947 63.0152 229.012C65.1281 231.52 67.4499 233.888 70.5148 235.153C70.8282 235.281 71.0024 234.793 70.7354 234.631C66.498 231.914 63.6537 228.455 60.5424 224.577C58.4179 221.919 56.1425 218.494 52.3811 218.61C52.056 218.622 52.0676 219.086 52.3811 219.098Z" fill="#6EE5BD"/>
<path opacity="0.55" d="M49.3627 234.445C49.3278 233.714 49.5136 233.052 49.9199 232.437C50.036 232.216 49.7342 231.937 49.5484 232.158C48.9331 232.878 48.7242 233.516 48.6197 234.445C48.5732 234.909 49.3511 234.933 49.3627 234.445Z" fill="#659AC1"/>
<path opacity="0.55" d="M51.2202 230.01C52.892 227.317 58.2206 224.345 56.8391 220.537C56.723 220.224 56.3051 220.282 56.2703 220.618C56.0381 223.103 55.1326 224.612 53.426 226.411C52.4392 227.456 51.5569 228.536 50.9416 229.848C50.8371 230.033 51.1041 230.184 51.2202 230.01Z" fill="#6EE5BD"/>
<path opacity="0.55" d="M59.5092 232.576C60.2638 230.347 61.773 227.352 60.4263 225.1C60.2638 224.821 59.7414 225.007 59.8691 225.332C60.7978 227.689 60.1129 230.219 59.4744 232.576C59.4744 232.588 59.5092 232.588 59.5092 232.576Z" fill="#6EE5BD"/>
<path opacity="0.55" d="M73.8003 223.289C71.908 222.708 70.1317 222.847 68.2278 223.358C65.5461 224.078 63.259 225.668 60.4148 224.612C59.9272 224.426 59.6834 225.146 60.0781 225.413C61.4944 226.377 63.0385 226.168 64.6173 225.668C67.7286 224.682 70.3407 222.859 73.7771 223.393C73.8351 223.405 73.8699 223.3 73.8003 223.289Z" fill="#6EE5BD"/>
<path opacity="0.55" d="M63.3867 211.842C62.0284 212.817 60.9372 214.013 60.1594 215.499C59.8227 216.137 59.5905 216.822 59.2887 217.472C58.685 218.796 57.7098 219.55 56.5256 220.375C55.7478 220.92 56.4908 222.209 57.2802 221.652C58.5689 220.746 59.9736 219.574 60.4031 217.995C61.0417 215.626 61.7266 213.85 63.6421 212.155C63.8047 212.016 63.5725 211.714 63.3867 211.842Z" fill="#6EE5BD"/>
<path opacity="0.55" d="M66.9277 235.977C66.115 234.433 66.0918 233.028 65.79 231.392C65.7435 231.136 65.3488 231.148 65.2908 231.392C64.8728 233.063 65.581 234.851 66.4169 236.291C66.6026 236.627 67.1018 236.326 66.9277 235.977Z" fill="#6EE5BD"/>
</g>
<path d="M69.8068 185.837C68.2976 181.507 65.6042 176.387 60.4032 179.254C53.6931 182.946 55.8176 193.882 55.7015 199.745C55.0862 230.498 53.3796 316.558 56.6883 347.183C56.7927 348.112 58.151 348.158 58.1743 347.183C58.5574 327.226 57.8028 252.764 57.6751 232.808C57.617 223.486 57.6518 214.164 57.7795 204.841C57.8492 199.664 57.8956 194.474 58.0698 189.296C58.1394 187.184 57.7563 183.968 59.8112 182.528C62.6554 180.543 67.2411 183.353 68.6691 186.301C68.9825 186.94 70.039 186.499 69.8068 185.837Z" fill="#0E7C74"/>
<path d="M38.4616 176.271C44.9976 191.746 45.6361 211.795 47.4936 228.292C49.2815 244.069 49.9316 331.081 51.4872 346.881C51.5801 347.763 52.8803 347.798 52.8919 346.881C53.0661 328.736 51.0925 239.275 48.8055 221.292C46.9015 206.316 46.1353 189.285 39.9476 175.4C39.5064 174.367 38.0437 175.261 38.4616 176.271Z" fill="#0E7C74"/>
<path d="M30.4743 199.606C36.2325 203.297 36.6621 211.447 37.7417 217.356C38.7982 223.126 39.7385 228.919 40.5976 234.724C42.3158 246.298 43.1633 336.096 45.0207 347.647C45.1484 348.472 46.4603 348.263 46.4487 347.45C46.2978 332.811 43.9179 239.832 41.3174 225.448C39.7733 216.938 39.6108 203.355 31.2405 198.282C30.393 197.783 29.65 199.072 30.4743 199.606Z" fill="#0E7C74"/>
<path d="M73.1734 227.793C66.7186 226.713 65.8363 242.246 65.0353 245.996C62.0633 259.811 59.4744 332.451 60.38 346.579C60.4032 346.986 60.9836 346.986 61.0069 346.579C61.5293 340.124 64.5709 227.27 73.1154 228.141C73.3243 228.164 73.3708 227.828 73.1734 227.793Z" fill="#0E7C74"/>
<path d="M90.9589 194.463C90.6223 193.696 90.2043 192.977 89.6819 192.315C89.0782 191.56 88.3236 190.875 87.4065 190.573C86.6171 190.318 85.7696 190.353 84.9453 190.295C83.8424 190.225 82.7628 189.981 81.7295 189.575C80.9517 189.273 80.1275 188.762 80.023 187.938C79.9417 187.288 80.3596 186.673 80.8821 186.278C81.8572 185.523 83.2388 185.349 84.3765 185.825C85.0266 186.104 85.5838 186.568 86.2223 186.882C86.8609 187.183 87.6735 187.311 88.2424 186.893C88.8693 186.44 88.9621 185.5 88.6603 184.78C88.3585 184.072 87.7548 183.538 87.1627 183.039C85.4677 181.599 83.7031 180.195 81.6947 179.243C79.6863 178.279 77.3993 177.78 75.2051 178.21C73.0226 178.651 70.9909 180.137 70.248 182.226C70.0042 182.911 69.8997 183.654 69.5282 184.281C68.9709 185.21 67.9261 185.732 66.9045 186.092C65.6507 186.533 64.3504 186.812 63.027 186.916C61.866 187.009 60.6471 186.986 59.5906 187.485C58.7315 187.892 58.0698 188.623 57.5358 189.412C56.015 191.688 55.5158 194.555 55.8524 197.272C56.1891 199.989 57.3036 202.566 58.7664 204.876C59.312 205.735 59.9157 206.571 60.7167 207.186C61.5178 207.802 63.5726 208.742 64.571 208.579C65.5346 208.312 64.9541 206.989 64.571 206.467C63.6539 205.201 62.9689 203.657 63.4449 202.171C63.8745 200.824 65.0702 201.231 66.0222 202.485C68.0422 205.143 65.5462 206.408 68.2279 210.1C68.762 210.843 72.1171 212.759 73.0226 212.852C73.7191 212.921 74.9033 213.432 75.5186 212.91C76.4705 212.12 74.8917 210.716 74.4389 210.089C73.8236 209.23 73.3592 208.196 73.2896 207.128C73.2664 206.873 73.4986 204.888 73.4405 204.864C74.4621 205.387 74.2996 206.699 74.6595 207.616C75.3328 209.357 77.7011 209.973 79.3613 210.135C80.9169 210.274 82.4841 210.112 84.0282 210.367C85.3052 210.576 86.5358 211.087 87.5922 211.842C87.9057 212.062 88.2424 212.318 88.6139 212.306C89.4729 212.283 89.6935 211.11 89.6355 210.263C89.3917 206.943 88.6023 203.332 85.9553 201.324C85.491 200.964 84.9685 200.673 84.5738 200.232C84.1907 199.791 83.9585 199.141 84.1907 198.607C84.597 197.69 86.0134 197.771 86.7796 198.421C87.5574 199.06 87.987 200.035 88.73 200.72C89.4729 201.405 90.8196 201.66 91.3769 200.813C91.5278 200.581 91.5975 200.314 91.6439 200.047C91.9457 198.166 91.7019 196.204 90.9589 194.463Z" fill="#42C6A1"/>
<path d="M70.0041 185.547C73.8352 186.975 74.7407 193.487 76.1222 196.889C77.0974 199.292 78.2932 201.533 80.1739 203.344C80.3016 203.471 80.4873 203.286 80.3713 203.146C77.1787 199.42 75.9945 194.997 74.2183 190.527C73.336 188.31 72.4769 186.104 70.0622 185.326C69.9113 185.268 69.8532 185.489 70.0041 185.547Z" fill="#83F2D0"/>
<path d="M63.2474 197.051C63.4564 196.436 63.8047 195.949 64.3155 195.577C64.4083 195.496 64.2806 195.333 64.1762 195.403C63.5609 195.821 63.2242 196.216 62.9224 196.912C62.8179 197.156 63.1545 197.295 63.2474 197.051Z" fill="#83F2D0"/>
<path d="M66.0337 194.01C68.193 192.176 72.7903 191.409 73.0457 187.973C73.0573 187.811 72.8251 187.799 72.7671 187.938C71.641 191.27 68.2162 191.676 65.9176 193.894C65.8479 193.963 65.9524 194.068 66.0337 194.01Z" fill="#83F2D0"/>
<path d="M72.0125 198.363C73.2314 196.715 75.0077 194.822 74.6826 192.628C74.6594 192.466 74.3808 192.501 74.3924 192.663C74.5549 194.788 73.1618 196.68 72.0009 198.352C72.0009 198.363 72.0125 198.375 72.0125 198.363Z" fill="#83F2D0"/>
<path d="M85.9901 194.823C84.7363 193.952 83.4012 193.615 81.8804 193.511C79.4889 193.348 76.7956 194.161 74.8452 192.373C74.6362 192.187 74.3808 192.466 74.5434 192.675C75.4141 193.778 76.7143 193.998 78.061 194.033C80.8124 194.08 83.4245 193.395 85.9669 194.869C85.9901 194.881 86.0133 194.834 85.9901 194.823Z" fill="#83F2D0"/>
<path d="M80.7657 182.876C79.5351 183.294 78.409 183.898 77.4571 184.792C77.0391 185.175 76.7025 185.616 76.331 186.046C75.3442 187.16 74.369 187.648 72.9643 188.054C72.5231 188.182 72.7089 188.878 73.15 188.751C74.369 188.379 75.6693 187.903 76.4587 186.858C77.7357 185.187 78.7805 183.886 80.8122 183.074C80.9399 183.027 80.8934 182.83 80.7657 182.876Z" fill="#83F2D0"/>
<path d="M76.9232 203.135C76.691 201.73 76.9232 200.511 77.2715 199.153C77.3063 199.013 77.1089 198.921 77.0393 199.06C76.3892 200.372 76.3775 201.8 76.6446 203.216C76.6794 203.39 76.958 203.309 76.9232 203.135Z" fill="#83F2D0"/>
<path d="M4.70166 230.231C4.89902 228.966 5.27051 227.712 5.79293 226.539C6.40823 225.181 7.2557 223.881 8.52112 223.068C9.60078 222.383 10.8778 222.105 12.0852 221.71C13.6989 221.176 15.2197 220.398 16.6012 219.411C17.646 218.668 18.6909 217.577 18.5283 216.311C18.4006 215.313 17.5415 214.558 16.6244 214.152C14.883 213.398 12.7469 213.665 11.2493 214.814C10.3786 215.476 9.74009 216.381 8.90422 217.089C8.06836 217.786 6.90743 218.285 5.89742 217.879C4.78292 217.438 4.28372 216.068 4.46947 214.884C4.65522 213.699 5.35178 212.678 6.04834 211.703C8.03353 208.905 10.1232 206.142 12.7585 203.948C15.3822 201.742 18.6096 200.117 22.0343 199.931C25.4591 199.745 29.058 201.185 30.9735 204.029C31.6004 204.958 32.0416 206.026 32.8426 206.815C34.0267 207.988 35.7797 208.371 37.4399 208.51C39.4715 208.684 41.5263 208.603 43.5464 208.255C45.3226 207.953 47.122 207.442 48.8866 207.79C50.3146 208.069 51.5916 208.905 52.6829 209.88C55.829 212.689 57.6633 216.776 58.1973 220.955C58.7429 225.135 58.058 229.407 56.7577 233.412C56.2818 234.898 55.7013 236.372 54.7377 237.603C53.7742 238.833 51.0692 241.016 49.5135 241.155C47.9695 241.121 48.341 238.915 48.7009 238.009C49.5948 235.78 50.0244 233.215 48.7473 231.171C47.5864 229.325 45.9611 230.394 45.0324 232.611C43.0356 237.348 47.2497 238.276 44.6492 244.801C44.1268 246.101 39.8662 250.245 38.5544 250.745C37.5444 251.128 35.9771 252.335 34.851 251.789C33.1328 250.965 34.9439 248.272 35.3734 247.169C35.9655 245.648 36.2557 243.93 35.9655 242.305C35.8958 241.922 34.8046 239.042 34.8742 238.984C33.5508 240.157 34.2938 242.049 34.108 243.547C33.7713 246.391 30.4743 248.225 28.048 249.096C25.7841 249.897 23.381 250.257 21.1869 251.221C19.3642 252.033 17.7157 253.252 16.427 254.785C16.0439 255.237 15.6492 255.737 15.0688 255.876C13.7801 256.166 13.0023 254.518 12.7701 253.217C11.8646 248.179 11.6672 242.49 14.8482 238.485C15.417 237.777 16.0788 237.139 16.4851 236.326C16.8914 235.513 16.9959 234.468 16.4387 233.76C15.4751 232.541 13.4086 233.215 12.5031 234.468C11.5976 235.722 11.319 237.336 10.4831 238.636C9.64722 239.936 7.72008 240.83 6.58237 239.785C6.26891 239.507 6.07156 239.124 5.89742 238.741C4.632 236.129 4.2489 233.11 4.70166 230.231Z" fill="#42C6A1"/>
<path d="M32.3783 208.672C29.534 210.495 28.6865 213.339 28.1873 216.567C26.98 224.368 27.514 231.926 23.8455 239.17C23.7642 239.333 23.9964 239.472 24.0892 239.309C26.1093 235.861 27.0496 232.263 27.6069 228.304C28.4079 222.65 27.1193 212.562 32.4944 208.881C32.6337 208.789 32.5176 208.58 32.3783 208.672Z" fill="#83F2D0"/>
<path d="M47.3891 223.289C46.7506 222.406 46.0076 221.803 44.9628 221.466C44.8467 221.431 44.7538 221.617 44.8699 221.675C45.7986 222.093 46.4952 222.615 47.0756 223.474C47.215 223.66 47.5284 223.474 47.3891 223.289Z" fill="#83F2D0"/>
<path d="M41.7818 219.864C37.5444 217.484 32.0068 218.25 29.2437 213.595C29.1625 213.467 28.9303 213.549 28.9883 213.7C30.7994 218.657 37.7766 218.007 41.7005 220.003C41.7934 220.038 41.8747 219.91 41.7818 219.864Z" fill="#83F2D0"/>
<path d="M33.9689 228.803C31.6354 226.818 28.6054 224.484 28.1527 221.257C28.1294 221.094 27.8624 221.129 27.8624 221.292C28.0366 224.566 31.6587 226.946 33.9689 228.803C33.9689 228.826 33.9689 228.815 33.9689 228.803Z" fill="#83F2D0"/>
<path d="M11.8065 228.919C14.9991 225.68 19.1436 225.68 23.2533 224.542C25.2269 223.997 26.9799 223.172 27.9086 221.245C28.0247 221.001 27.688 220.792 27.5371 221.036C25.4126 224.496 20.885 224.356 17.4022 225.448C15.1964 226.144 13.3157 227.131 11.7717 228.884C11.7485 228.907 11.7833 228.942 11.8065 228.919Z" fill="#83F2D0"/>
<path d="M15.2778 208.626C18.7025 209.032 20.6645 210.541 23.2882 212.515C24.9019 213.722 26.9103 213.931 28.8722 214.013C29.3366 214.036 29.3366 213.316 28.8722 213.293C26.9799 213.223 25.2269 213.037 23.6364 211.981C22.6961 211.354 21.8834 210.6 20.885 210.042C19.1436 209.067 17.2513 208.58 15.2778 208.417C15.1501 208.417 15.1617 208.603 15.2778 208.626Z" fill="#83F2D0"/>
<path d="M29.2903 237.8C29.1742 235.676 28.5938 233.424 27.1426 231.798C27.0497 231.694 26.8756 231.833 26.9452 231.949C28.0017 233.865 28.8376 235.571 29.0001 237.789C29.0117 237.986 29.3019 237.998 29.2903 237.8Z" fill="#83F2D0"/>
<path d="M61.9355 227.712C64.6869 222.569 71.1881 219.84 76.7374 221.779C78.7922 222.499 80.6845 223.672 82.7858 224.264C83.4243 224.438 84.0977 224.519 84.771 224.542C86.3615 221.234 88.7878 217.635 92.3054 217.449C96.6009 217.228 102.313 220.897 104.96 223.997C106.771 226.121 108.164 228.489 108.233 231.357C108.245 231.903 108.199 232.471 107.873 232.913C107.432 233.505 106.596 233.644 105.865 233.597C105.134 233.551 104.391 233.365 103.659 233.47C102.51 233.632 101.535 234.573 101.233 235.699C100.943 236.825 101.303 238.079 102.08 238.938C102.394 239.286 102.777 239.576 103.172 239.843C104.228 240.145 105.25 240.493 106.132 241.12C107.897 242.386 108.675 244.615 108.686 246.728C108.698 248.562 107.815 250.129 107.177 251.789C106.736 252.927 104.983 258.105 103.032 256.34C102.638 255.98 102.58 255.388 102.51 254.866C102.313 253.356 101.628 251.708 100.188 251.209C99.3058 250.907 98.2494 251.139 97.5761 251.789C96.9027 252.439 96.6357 253.484 96.9259 254.378C97.1233 255.005 97.5528 255.527 97.9011 256.073C98.5512 257.071 98.9576 258.198 99.1433 259.37C99.7702 261.425 99.6889 263.712 99.1665 265.813C98.47 268.623 97.042 271.177 95.6373 273.708C94.9756 269.621 90.6453 267.404 86.9303 265.569C83.7029 263.967 78.5949 262.098 79.1753 257.605C79.3495 256.236 79.988 254.634 79.0592 253.612C77.5036 254.877 77.0624 257.071 77.074 259.068C77.074 260.194 77.1901 261.32 77.2134 262.447C77.225 263.004 77.55 264.42 76.7722 264.664C76.54 264.734 76.2962 264.629 76.0756 264.525C73.8583 263.445 71.7105 261.831 70.271 259.811C68.5992 257.466 68.0652 254.088 69.737 251.754C70.2942 250.988 71.0488 250.373 71.6293 249.63C75.1585 245.114 72.0472 243.256 68.7734 244.475C67.4615 244.963 66.2426 245.752 65.3138 246.809C64.803 247.389 64.4547 248.086 64.1877 248.806C63.9788 249.363 64.0716 250.176 63.6189 250.617C62.4812 251.731 61.506 248.62 61.2273 248.039C60.6004 246.693 60.1361 245.276 59.8226 243.825C59.1725 240.83 59.1377 237.696 59.6253 234.666C60.0432 232.262 60.7746 229.871 61.9355 227.712Z" fill="#1D9E99"/>
<path d="M84.446 225.668C88.7414 229.836 86.6749 239.123 86.8143 244.429C86.9071 248.214 87.3831 251.696 89.0084 255.133C89.1477 255.423 89.6353 255.226 89.5308 254.912C87.3599 248.33 87.801 242.13 87.7778 235.35C87.7662 231.543 87.8475 227.92 84.7942 225.32C84.5504 225.111 84.2138 225.436 84.446 225.668Z" fill="#37E2D6"/>
<path d="M69.4119 237.858C70.0271 237.127 70.6657 236.721 71.5712 236.372C71.8498 236.268 71.7453 235.873 71.4435 235.92C70.387 236.094 69.6324 236.558 68.8894 237.324C68.5528 237.673 69.11 238.218 69.4119 237.858Z" fill="#37E2D6"/>
<path d="M74.7173 235.107C78.3394 233.888 85.7345 235.141 87.4643 230.509C87.5688 230.231 87.1741 230.033 86.9767 230.231C85.0728 232.239 83.2385 233.075 80.4988 233.435C78.4439 233.714 76.4935 233.957 74.578 234.805C74.4271 234.874 74.5432 235.165 74.7173 235.107Z" fill="#37E2D6"/>
<path d="M80.9632 244.092C83.3199 242.63 87.3019 240.807 87.6618 237.672C87.6966 237.324 87.1626 237.278 87.0697 237.591C86.1293 240.552 83.4011 242.386 80.9516 244.069C80.94 244.069 80.9516 244.092 80.9632 244.092Z" fill="#37E2D6"/>
<path d="M101.871 246.542C100.525 244.441 98.5512 243.187 96.2874 242.2C93.2225 240.865 89.8558 240.528 88.1028 237.336C87.859 236.895 87.1857 237.196 87.3018 237.672C87.801 239.739 89.6933 240.795 91.5508 241.515C95.1961 242.943 99.1665 243.384 101.79 246.6C101.813 246.658 101.895 246.588 101.871 246.542Z" fill="#37E2D6"/>
<path d="M101.036 227.491C98.8996 227.387 96.926 227.688 94.964 228.559C93.9772 229 93.0717 229.65 92.0617 230.022C90.6686 230.521 89.1826 230.417 87.7198 230.3C86.7679 230.219 86.7679 231.717 87.7198 231.786C89.4148 231.914 91.4116 231.926 92.9324 231.067C94.0353 230.44 94.9176 229.546 96.0901 229C97.6574 228.269 99.3059 227.967 101.036 227.921C101.303 227.897 101.303 227.503 101.036 227.491Z" fill="#37E2D6"/>
<path d="M84.8523 253.171C85.2703 251.046 86.4196 249.734 87.3831 247.9C87.4992 247.68 87.2554 247.389 87.0233 247.54C85.3399 248.666 84.5621 251.104 84.2603 252.997C84.2022 253.38 84.7711 253.554 84.8523 253.171Z" fill="#37E2D6"/>
<path d="M66.2659 279.791C66.9972 272.698 62.2258 265.372 55.2138 263.41C52.6133 262.679 49.8619 262.528 47.3079 261.646C46.5301 261.379 45.7871 260.984 45.0789 260.531C45.729 256.085 45.7406 250.768 42.2578 248.109C38.0088 244.859 29.6269 244.522 24.7858 245.776C21.4656 246.635 18.4007 248.028 16.3575 250.861C15.9744 251.395 15.6261 252.01 15.6493 252.672C15.6958 253.577 16.4388 254.309 17.2282 254.773C18.0176 255.249 18.8999 255.574 19.5733 256.189C20.6413 257.164 20.9896 258.801 20.5136 260.136C20.0376 261.472 18.8071 262.47 17.4139 262.783C16.8451 262.911 16.2646 262.934 15.6725 262.923C14.3839 262.493 13.0953 262.11 11.7486 262.122C9.05525 262.156 6.73339 263.84 5.25901 265.953C3.98199 267.787 3.79624 269.981 3.30865 272.094C2.97198 273.545 1.19576 279.977 4.41153 279.582C5.06165 279.501 5.52602 278.944 5.96718 278.468C7.20937 277.086 9.05525 275.925 10.8663 276.436C11.9808 276.749 12.8979 277.725 13.1417 278.851C13.3739 279.977 12.9328 281.207 12.0272 281.916C11.3887 282.403 10.5993 282.624 9.85629 282.926C8.50961 283.471 7.30225 284.319 6.30385 285.363C4.249 286.989 2.7514 289.334 1.83427 291.818C0.615293 295.127 0.301842 298.703 0 302.22C3.4944 298.586 9.46158 299.411 14.5232 300.177C18.9348 300.85 25.4476 302.557 27.9552 297.646C28.7214 296.148 29.1742 294.094 30.8343 293.711C31.5541 296.079 30.486 298.586 29.1045 300.583C28.3151 301.709 27.4212 302.754 26.6201 303.869C26.2254 304.426 24.9135 305.622 25.5288 306.411C25.7146 306.643 26.0396 306.725 26.3415 306.771C29.3483 307.247 32.6686 307.143 35.5244 306.133C38.8447 304.96 41.7354 301.942 41.6309 298.424C41.5961 297.263 41.2478 296.114 41.1549 294.953C40.6558 287.929 45.1253 288.266 47.6445 291.795C48.6546 293.211 49.3511 294.86 49.5833 296.566C49.711 297.507 49.5717 298.447 49.3511 299.364C49.177 300.061 48.5152 300.827 48.6778 301.582C49.0725 303.497 52.2186 301.071 52.9036 300.676C54.4708 299.771 55.922 298.668 57.2454 297.437C59.9736 294.883 62.1794 291.76 63.7699 288.382C65.0585 285.677 65.9524 282.775 66.2659 279.791Z" fill="#1D9E99"/>
<path d="M44.6378 261.89C37.3703 263.05 33.0633 273.824 29.2671 279.06C26.5621 282.786 23.6598 285.956 19.6313 288.254C19.2831 288.452 18.9232 287.894 19.2482 287.662C26.0048 282.577 29.8359 276.053 34.5377 269.261C37.173 265.454 39.5877 261.762 44.5217 261.297C44.9048 261.263 45.0209 261.831 44.6378 261.89Z" fill="#37E2D6"/>
<path d="M51.6032 284.702C51.4755 283.541 51.104 282.682 50.419 281.695C50.2101 281.393 50.5816 281.068 50.8602 281.335C51.8238 282.252 52.2649 283.251 52.5087 284.551C52.6132 285.131 51.6728 285.282 51.6032 284.702Z" fill="#37E2D6"/>
<path d="M47.749 278.305C44.8815 274.532 36.4416 270.573 37.8695 264.722C37.9508 264.374 38.4964 264.443 38.5545 264.78C39.1117 268.124 40.4236 270.26 42.966 272.558C44.8699 274.276 46.7042 275.902 48.0857 278.096C48.2134 278.293 47.8883 278.491 47.749 278.305Z" fill="#37E2D6"/>
<path d="M35.5129 282.879C34.1082 279.745 31.2871 275.124 33.0866 271.723C33.2839 271.339 33.8644 271.676 33.7483 272.059C32.6686 275.693 34.2011 279.454 35.5361 282.856C35.5477 282.891 35.5245 282.902 35.5129 282.879Z" fill="#37E2D6"/>
<path d="M12.4916 270.678C15.3242 269.517 18.1917 269.644 21.1985 270.26C25.2618 271.084 28.9419 273.104 32.9355 271.142C33.4928 270.863 33.9688 271.653 33.5276 272.048C31.5889 273.766 28.9303 273.499 26.5272 272.918C21.8138 271.792 17.4371 269.435 12.538 270.817C12.4567 270.829 12.4219 270.712 12.4916 270.678Z" fill="#37E2D6"/>
<path d="M26.3995 252.265C28.6517 253.658 30.4628 255.353 31.8791 257.606C32.5873 258.743 33.0517 260.032 33.8411 261.123C34.9208 262.609 36.5112 263.538 38.0901 264.455C39.1117 265.047 38.0901 266.545 37.0685 265.941C35.2458 264.873 33.191 263.492 32.2274 261.541C31.5309 260.136 31.2406 258.627 30.428 257.246C29.3367 255.4 27.8507 253.949 26.1093 252.683C25.8423 252.474 26.1209 252.091 26.3995 252.265Z" fill="#37E2D6"/>
<path d="M25.2386 289.206C26.2718 286.78 25.9932 284.655 26.2718 282.136C26.3066 281.834 26.7594 281.718 26.8871 282.032C27.8275 284.342 26.9335 287.337 25.9467 289.462C25.7494 289.88 25.0528 289.647 25.2386 289.206Z" fill="#37E2D6"/>
<path d="M55.9102 182.633C56.4791 177.885 53.3794 172.986 48.7357 171.674C47.0059 171.186 45.1832 171.093 43.4999 170.501C42.9891 170.315 42.4899 170.06 42.0255 169.758C42.5131 166.786 42.5711 163.222 40.2841 161.446C37.4979 159.275 31.9254 159.066 28.6864 159.913C26.4691 160.494 24.4142 161.434 23.0211 163.338C22.7541 163.698 22.5219 164.104 22.5335 164.546C22.5567 165.149 23.0443 165.637 23.5551 165.95C24.0775 166.264 24.658 166.484 25.0992 166.902C25.7957 167.552 26.0163 168.644 25.6796 169.538C25.343 170.431 24.5187 171.105 23.5899 171.314C23.2068 171.395 22.8237 171.418 22.429 171.407C21.5815 171.116 20.7225 170.861 19.8285 170.873C18.0407 170.896 16.4735 172.034 15.4751 173.45C14.6044 174.681 14.4534 176.143 14.1168 177.571C13.8846 178.546 12.6192 182.853 14.7669 182.586C15.1964 182.528 15.5215 182.157 15.8117 181.832C16.6592 180.903 17.8898 180.125 19.0972 180.462C19.8401 180.671 20.4322 181.321 20.5831 182.076C20.7341 182.83 20.4206 183.654 19.8053 184.13C19.3758 184.456 18.8417 184.606 18.3542 184.815C17.4486 185.187 16.636 185.756 15.9626 186.452C14.5811 187.544 13.5595 189.122 12.921 190.783C12.0735 193 11.8297 195.391 11.5859 197.748C13.9542 195.31 17.913 195.856 21.2681 196.367C24.1936 196.808 28.5007 197.946 30.2305 194.648C30.7529 193.638 31.0779 192.269 32.1924 192.013C32.6452 193.592 31.9138 195.275 30.9619 196.622C30.4278 197.377 29.8241 198.085 29.2785 198.828C29.0115 199.199 28.1176 200 28.5239 200.534C28.6516 200.697 28.8606 200.743 29.0579 200.767C31.0547 201.08 33.2605 201.01 35.176 200.325C37.405 199.536 39.3554 197.516 39.3205 195.148C39.3089 194.37 39.0884 193.604 39.0419 192.826C38.7865 188.124 41.7585 188.345 43.3954 190.701C44.0571 191.642 44.4983 192.756 44.626 193.894C44.6956 194.521 44.6028 195.159 44.4402 195.763C44.3242 196.239 43.8714 196.738 43.9643 197.249C44.2081 198.526 46.3209 196.901 46.7853 196.634C47.8418 196.03 48.8169 195.287 49.7109 194.451C51.5567 192.733 53.0543 190.643 54.1456 188.379C55.0395 186.58 55.678 184.63 55.9102 182.633Z" fill="#3DC8A1"/>
<path d="M41.6773 170.222C38.09 170.408 36.1861 173.612 34.3402 176.329C31.3914 180.659 28.7677 184.687 24.5419 187.903C24.2517 188.124 24.4955 188.577 24.8322 188.402C27.8158 186.882 29.9519 184.246 31.8558 181.553C34.2938 178.105 37.1032 171.325 41.6657 170.733C41.9907 170.675 42.0139 170.199 41.6773 170.222Z" fill="#83F2D0"/>
<path d="M46.7622 185.791C46.588 184.897 46.3094 184.282 45.6593 183.643C45.4735 183.457 45.1485 183.701 45.2878 183.922C45.7173 184.49 45.9611 185.152 46.0192 185.884C46.0888 186.418 46.8666 186.325 46.7622 185.791Z" fill="#83F2D0"/>
<path d="M44.0689 181.425C43.233 179.998 42.0837 178.906 40.8647 177.803C39.1233 176.224 38.3455 174.797 37.9044 172.51C37.8463 172.219 37.4284 172.254 37.3471 172.51C36.1514 176.399 41.9444 179.092 43.7903 181.588C43.9064 181.762 44.185 181.611 44.0689 181.425Z" fill="#83F2D0"/>
<path d="M35.6869 184.873C34.851 182.575 33.9339 180.079 34.6653 177.641C34.7582 177.316 34.259 177.095 34.108 177.408C32.9471 179.823 34.6885 182.667 35.6521 184.885C35.6637 184.908 35.6869 184.896 35.6869 184.873Z" fill="#83F2D0"/>
<path d="M20.5136 176.84C24.0661 175.969 26.922 177.792 30.2887 178.43C31.8675 178.732 33.2723 178.686 34.5377 177.664C34.9556 177.327 34.4216 176.77 34.0036 176.967C31.1361 178.314 28.5124 176.7 25.6682 176.271C23.8223 175.992 22.2202 176.039 20.4904 176.724C20.4208 176.758 20.444 176.851 20.5136 176.84Z" fill="#83F2D0"/>
<path d="M29.8127 164.708C30.8692 165.486 31.7515 166.391 32.448 167.506C33.0401 168.446 33.191 169.445 33.5974 170.443C34.1778 171.871 35.6406 172.916 36.9408 173.67C37.7651 174.146 38.5197 172.869 37.6954 172.393C36.7203 171.825 35.6522 171.244 34.9789 170.304C34.4332 169.526 34.0966 168.586 33.5858 167.784C32.6802 166.357 31.4729 165.23 30.0217 164.36C29.7895 164.209 29.6038 164.546 29.8127 164.708Z" fill="#83F2D0"/>
<path d="M29.0116 189.227C29.7314 187.706 30.3119 185.849 29.7546 184.2C29.6618 183.91 29.267 183.98 29.2438 184.27C29.0813 185.918 29.1742 187.335 28.5008 188.925C28.3383 189.273 28.8375 189.587 29.0116 189.227Z" fill="#83F2D0"/>
<path d="M20.5253 341.448C20.5253 341.448 52.9152 349.865 88.4396 340.74V348.982H20.5253V341.448Z" fill="#69AAEC"/>
<path d="M19.3412 341.518C23.1838 342.818 27.1774 343.503 31.1826 344.037C36.1746 344.687 41.2015 345.047 46.2399 345.198C56.5141 345.5 66.8696 345.14 77.051 343.723C79.3612 343.398 81.6599 343.027 83.9353 342.493C85.7928 342.052 87.6851 341.576 89.4265 340.775C89.798 340.6 89.531 340.032 89.1595 340.124C85.5954 341.042 82.0313 341.808 78.3744 342.342C73.6146 343.038 68.8084 343.433 64.0137 343.688C53.7279 344.211 43.3492 344.141 33.0866 343.096C28.5473 342.632 23.9384 341.994 19.5501 340.728C19.0509 340.589 18.8536 341.355 19.3412 341.518Z" fill="#3479B2"/>
<path d="M149.481 259.428C149.481 259.428 149.028 316.325 149.899 322.954C150.758 329.583 155.715 400.133 155.715 400.133C155.715 400.133 161.764 401.352 163.981 400.11C165.119 390.393 167.545 352.523 168.079 323.755C166.779 318.438 178.504 259.927 178.504 259.927L149.481 259.428Z" fill="#F9AB87"/>
<path d="M178.505 267.949C178.505 267.949 188.465 307.526 194.421 322.502C200.377 337.489 231.339 391.217 232.302 393.492C237.166 393.841 239.778 390.451 239.778 390.451C239.778 390.451 224.907 333.646 210.558 316.952C208.747 306.086 204.602 260.078 204.602 260.078L178.505 267.949Z" fill="#F9AB87"/>
<path d="M187.618 208.359L182.591 239.82C182.591 239.82 182.011 243.187 181.128 248.376C179.573 257.408 177.088 271.966 175.045 283.831C173.791 291.157 172.723 297.449 172.154 300.792C170.134 312.645 168.834 316.767 170.297 337.687C171.76 358.607 166.431 389.987 166.431 389.987C157.167 391.565 153.672 390.068 153.672 390.068C153.672 390.068 149.644 344.35 148.46 325.81C147.299 307.27 147.113 299.121 146.892 275.681C146.66 252.231 149.354 218.378 149.354 218.378L187.618 208.359Z" fill="#004C80"/>
<path d="M181.128 248.376C179.573 257.408 177.088 271.966 175.045 283.831C167.777 265.639 166.442 236.326 166.442 236.326L181.128 248.376Z" fill="#332027"/>
<path d="M206.471 213.734C206.471 213.734 209.71 225.425 208.05 242.781C206.39 260.125 210.384 305.819 211.405 309.151C212.427 312.483 221.598 328.666 227.066 343.607C232.534 358.548 238.629 380.803 238.629 380.803C238.629 380.803 237.224 384.739 227.623 386.26C227.623 386.26 193.144 326.251 188.779 317.37C184.414 308.478 172.967 261.681 170.007 250.872C167.046 240.064 163.424 222.279 163.424 222.279" fill="#004C80"/>
<path d="M207.725 223.788C178.284 226.748 160.057 223.173 148.715 221.861C148.309 218.68 149.667 217.345 150.77 207.546C151.733 198.967 150.387 176.039 151.257 167.448C152.058 159.507 152.337 151.404 153.916 143.602C155.506 135.836 157.735 127.872 162.867 121.649C163.714 120.639 164.631 119.664 165.827 119.095C167.986 118.085 170.529 118.654 172.839 119.246C179.213 120.871 183.856 118.468 188.546 118.782C190.833 119.478 196.278 121.255 198.542 123.054C200.492 127.663 194.107 134.303 194.978 136.869C196.406 141.153 197.439 145.553 198.472 149.941L204.231 164.464C205.125 175.54 204.846 191.189 205.38 204.273C205.519 208.394 210.14 222.081 207.725 223.788Z" fill="#BDDBF3"/>
<path d="M166.059 117.04L160.673 170.164C158.444 174.947 158.327 184.003 144.327 189.076C141.807 190.26 138.952 190.817 135.805 191.328C136.339 184.432 132.241 177.687 129.815 176.584L138.592 171.082C141.285 160.68 142.655 144.218 146.939 132.504C149.574 125.294 153.8 121.127 166.059 117.04Z" fill="#BDDBF3"/>
<path d="M168.59 107.091C168.637 108.844 168.416 112.919 167.093 115.45C166.396 116.785 164.98 117.168 164.074 117.737C164.469 119.885 166.547 129.126 171.887 129.799C177.239 130.472 186.213 121.638 188.535 118.77C187.037 118.457 183.972 117.865 183.171 115.903C180.548 109.506 181.035 97.2465 181.569 95.5051" fill="#F49B6E"/>
<path d="M183.055 70.1504C186.039 74.5271 187.955 79.6932 188.105 84.9871C188.175 87.2741 187.908 89.5611 187.653 91.8366C187.258 95.3542 186.852 98.8718 186.457 102.389C186.155 105.025 185.888 107.834 187.119 110.179C187.943 111.746 189.394 113 189.858 114.707C187.27 112.606 184.588 110.4 183.148 107.393C181.465 103.899 181.674 99.7889 182.347 95.9695C183.021 92.15 184.124 88.3654 184.089 84.4763" fill="#280A26"/>
<path d="M188.5 93.7986C188.245 96.5732 188.001 99.3711 188.407 102.122C188.814 104.874 189.928 107.614 192.029 109.448C189.313 108.183 187.421 105.547 186.469 102.703C185.528 99.8586 185.435 96.8054 185.586 93.8102" fill="#280A26"/>
<path d="M149.342 80.8541C148.82 85.2772 152.233 89.0735 153.8 93.2412C154.88 96.1087 155.089 99.22 155.785 102.192C156.493 105.176 157.852 108.217 160.487 109.796C162.716 111.131 165.514 111.178 168.079 110.69C174.047 109.552 179.422 105.617 182.301 100.253C185.18 94.9013 185.493 88.2376 183.137 82.6303C182.289 80.6103 181.117 78.7296 179.77 76.9998C176.31 72.5534 171.365 68.9197 165.746 68.4205C160.127 67.9213 154.021 71.2996 152.651 76.7676" fill="#FFB082"/>
<path d="M158.037 66.4934C157.561 66.1335 156.981 66.4005 156.528 66.7372C151.501 70.4173 150.097 79.8441 157.213 81.9453C159.848 82.7232 162.658 82.4213 165.386 82.6071C167.975 82.7812 170.529 83.3965 172.92 84.4181C171.98 83.1759 170.819 82.1079 169.496 81.2836C172.05 81.33 174.557 82.549 176.159 84.5226C177.576 86.264 178.423 88.6323 180.432 89.6307C181.302 87.3901 181.79 84.9986 181.86 82.5839C181.918 80.6219 181.674 78.5903 180.745 76.8605C180.037 75.5486 178.957 74.469 177.843 73.4822C175.277 71.2184 172.317 69.6047 169.867 67.2596C167.499 64.9958 163.145 62.8829 160.231 65.286" fill="#280A26"/>
<path d="M156.807 67.3875C154.659 67.6429 152.709 68.827 151.165 70.3362C145.766 75.6184 144.594 84.3254 150.596 89.6657C151.339 90.3274 153.127 91.4883 153.463 92.4403C151.687 87.4947 151.571 85.8811 151.71 82.4563C151.861 79.0432 154.369 75.7577 156.145 72.8438" fill="#280A26"/>
<path d="M161.404 102.378C161.288 102.958 161.973 105.617 164.411 105.884C166.454 106.116 169.972 104.258 169.322 102.32C168.904 101.6 161.52 101.797 161.404 102.378Z" fill="#DB7775"/>
<path d="M163.505 94.6809C163.424 95.122 163.087 95.3542 162.739 95.598C162.414 95.8302 162.077 96.1204 161.88 96.4687C161.625 96.9331 161.683 97.4903 161.95 97.9431C162.101 98.1869 162.31 98.4075 162.542 98.57C162.797 98.7441 163.053 98.8254 163.354 98.8719C163.494 98.8951 163.633 98.7209 163.505 98.6164C163.296 98.4423 163.099 98.2798 162.878 98.1289C162.658 97.9779 162.461 97.8154 162.321 97.5716C162.089 97.1769 162.147 96.759 162.426 96.4107C162.855 95.8766 163.54 95.4587 163.598 94.6925C163.61 94.6345 163.517 94.6112 163.505 94.6809Z" fill="#DB7775"/>
<path d="M155.158 89.3866C155.634 88.4346 156.493 88.1328 157.48 89.8161C158.095 90.8726 158.513 93.0551 156.969 93.5311C154.613 94.2509 154.38 90.9422 155.158 89.3866Z" fill="#471A12"/>
<path d="M155.135 90.4316C155.344 90.002 155.727 89.8743 156.168 90.6173C156.447 91.0933 156.621 92.0569 155.936 92.2658C154.891 92.5909 154.787 91.1281 155.135 90.4316Z" fill="white"/>
<path d="M159.454 85.3119C158.339 83.9072 154.241 83.1178 153.661 85.486C153.614 85.695 153.858 85.8343 154.009 85.695C154.764 84.9868 155.332 84.5573 156.435 84.5921C157.469 84.627 158.421 85.0449 159.338 85.4744C159.431 85.5209 159.523 85.3932 159.454 85.3119Z" fill="#4F2118"/>
<path d="M169.972 87.4598C170.517 86.4382 171.481 86.1131 172.561 87.8893C173.246 89.0038 173.687 91.3141 171.957 91.8249C169.322 92.6143 169.089 89.1083 169.972 87.4598Z" fill="#471A12"/>
<path d="M169.937 88.5625C170.181 88.1097 170.599 87.9704 171.086 88.7598C171.388 89.259 171.585 90.2806 170.819 90.5012C169.647 90.8495 169.542 89.3055 169.937 88.5625Z" fill="white"/>
<path d="M167.29 84.6732C168.602 84.2321 169.983 84.0579 171.353 84.3366C172.677 84.6152 173.571 85.3466 174.708 85.9619C174.894 86.0547 175.138 85.8574 175.01 85.66C173.42 83.2685 169.473 83.1176 167.151 84.3133C166.965 84.4294 167.093 84.7429 167.29 84.6732Z" fill="#4F2118"/>
<path d="M169.205 96.7243C169.031 96.0626 169.205 95.3196 169.925 94.5766C171.167 93.2996 173.269 92.87 174.975 93.137C175.73 93.2531 176.484 93.671 176.798 94.3792C176.984 94.8088 176.995 95.2963 176.914 95.7607C176.635 97.4441 175.207 98.9184 173.489 99.1274C171.922 99.3248 169.647 98.396 169.205 96.7243Z" fill="#F79386"/>
<path d="M155.495 97.6525C155.367 97.1301 155.46 96.5496 155.878 95.9808C156.598 95.0056 157.863 94.7154 158.908 94.9708C159.373 95.0869 159.837 95.4351 160.046 95.9924C160.174 96.3407 160.185 96.7238 160.15 97.0837C160.023 98.4071 159.198 99.5332 158.165 99.6609C157.213 99.7654 155.808 98.976 155.495 97.6525Z" fill="#F79386"/>
<path d="M153.603 68.6295C153.533 67.6776 153.812 66.6792 154.346 65.8897C155.53 64.1367 157.55 63.2196 159.28 62.1399C165.386 58.3437 174 58.692 180.443 61.931C182.556 62.999 186.399 66.1916 188.059 69.477C198.728 90.5479 187.769 103.504 184.065 103.481C179.932 103.457 179.039 99.0227 179.085 95.6676C179.131 92.7072 179.538 89.1548 177.46 86.7168C175.068 83.9074 173.687 80.204 170.657 77.9518C169.368 76.9998 167.882 76.3497 166.384 75.7692C164.144 74.8985 161.834 74.2832 159.558 73.517C157.782 72.925 156.017 72.1704 154.636 70.8933C153.986 70.3013 153.661 69.477 153.603 68.6295Z" fill="#280A26"/>
<path d="M177.738 93.7635C177.309 92.7999 177.959 91.1746 178.354 90.8148C179.155 90.095 180.408 90.2807 181.535 90.6522C182.22 90.8844 182.707 91.4881 183.067 92.1266C184.298 94.344 184.216 97.2463 182.858 99.394C182.312 100.265 181.511 101.043 180.49 101.205C179.48 101.356 178.307 100.648 178.296 99.6262" fill="#FFB082"/>
<path d="M93.5243 189.703C93.5243 189.703 89.2521 190.957 88.1957 191.793C87.6733 192.315 85.897 194.95 85.6881 196.227C85.5139 197.295 86.3846 200.5 86.3846 200.5C86.3846 200.5 87.3598 200.952 87.9171 199.582C88.4859 198.212 87.859 196.645 87.859 196.645L89.9603 194.277L93.5476 194.265L93.9539 191.885L93.5243 189.703Z" fill="#FFB082"/>
<path d="M87.5806 198.735C87.5806 198.735 89.4148 198.584 90.3319 197.713C91.2491 196.843 97.2975 195.206 97.2975 195.206L92.7699 192.164C92.7699 192.164 89.2639 192.64 89.0549 192.837C88.846 193.035 87.2787 194.254 87.2787 194.405C87.2787 194.556 86.9188 196.053 86.9188 196.053L87.5806 198.735Z" fill="#FFB082"/>
<path d="M84.9684 197.957C84.9684 197.957 87.209 197.365 88.3002 200.232C88.3002 200.232 91.3883 199.42 91.7482 198.735C91.7482 198.735 92.735 193.244 87.6733 190.678L84.9684 197.957Z" fill="#42C6A1"/>
<path d="M106.411 191.862L105.842 195.136C105.842 195.136 104.008 195.461 102.348 195.833C100.072 195.786 93.9308 193.905 92.259 194.3L93.5361 189.714C94.1281 189.529 95.7418 189.18 96.1481 189.215C102.603 189.714 105.099 188.693 105.099 188.693L106.411 191.862Z" fill="#FFB082"/>
<path d="M95.2309 193.975C95.2309 193.975 93.8029 194.649 93.0483 196.077C92.108 197.853 88.6252 198.712 87.7545 199.002C86.4078 199.455 85.9783 200.279 85.9783 200.477C85.9783 200.686 86.1292 200.883 86.8954 200.964C87.6616 201.045 90.889 200.941 91.9571 200.79C93.0251 200.639 97.0651 198.933 98.0403 198.445C99.0039 197.957 102.336 195.821 102.336 195.821L98.4699 194.115L95.2309 193.975Z" fill="#FFB082"/>
<path d="M126.739 179.115L103.23 189.494L105.83 195.136C105.83 195.136 127.11 192.164 131.069 191.317C135.016 190.481 135.643 184.038 135.643 184.038L129.815 178.036L126.739 179.115Z" fill="#FFB082"/>
<path d="M172.061 129.219C171.365 134.071 170.924 138.982 170.726 143.893C170.633 146.342 170.622 148.803 170.726 151.253C170.773 152.472 170.842 153.703 170.958 154.921C171.063 156.106 171.167 157.394 171.55 158.52C171.655 158.845 172.131 158.787 172.143 158.439C172.212 157.243 172.038 155.978 171.945 154.782C171.864 153.563 171.794 152.333 171.771 151.114C171.713 148.711 171.759 146.296 171.852 143.893C172.038 139.028 172.537 134.176 172.758 129.311C172.769 128.917 172.119 128.824 172.061 129.219Z" fill="#598FB5"/>
<path d="M206.03 208.359C205.995 208.371 205.96 208.371 205.926 208.382C203.209 208.824 201.224 211.192 201.05 213.932L201.015 214.384C199.819 228.675 202.211 299.539 202.211 299.539C173.187 305.239 145.522 299.539 145.522 299.539C145.522 299.539 145.232 263.654 145.522 249.433C145.789 236.338 150.259 196.181 150.967 189.9C151.025 189.332 151.014 187.927 151.037 187.358C151.629 174.843 148.227 158.869 147.937 154.179C147.635 149.384 151.35 140.143 151.35 140.143C153.266 136.649 153.51 125.004 153.533 122.973H153.544C153.544 122.973 154.682 121.754 156.493 121.046C156.725 123.669 155.39 145.855 167.255 147.852C180.153 150.034 192.064 123.089 193.295 120.326C193.295 120.326 195.175 120.79 196.151 121.591C195.535 123.611 186.201 148.142 189.87 161.632C190.857 165.277 192.888 171.268 194.827 178.163C196.777 185.059 198.739 192.826 199.947 199.919C202.036 203.507 205.31 203.251 205.31 203.251C205.949 204.598 206.03 208.359 206.03 208.359Z" fill="#42A3E8"/>
<path d="M153.707 203.251C153.707 203.251 152.418 204.888 151.896 206.548C151.559 207.616 152.697 207.604 153.707 207.488C154.729 207.384 154.543 204.946 154.543 204.946L153.707 203.251Z" fill="#F29E8B"/>
<path d="M150.213 231.183L138.952 201.858C137.675 198.514 134.366 196.436 130.802 196.61C129.885 196.657 128.991 196.727 128.097 196.808H128.109C128.109 196.808 104.426 198.584 103.822 201.103C103.23 203.576 104.344 214.918 104.344 214.918C104.588 217.461 104.797 219.33 104.797 219.33L107.038 241.318C107.467 245.52 111.008 248.69 115.234 248.69C119.146 248.69 124.51 248.249 131.104 246.716C137.663 245.184 142.643 243.222 146.149 241.492C149.98 239.623 151.745 235.153 150.213 231.183Z" fill="#F7BF38"/>
<path d="M107.978 232.645C107.978 232.645 95.4516 224.89 84.0629 207.059C84.0629 207.059 82.2054 207.627 80.3247 209.288C80.3247 209.288 96.9608 239.089 110.753 242.653" fill="#F7BF38"/>
<path d="M149.586 232.46C148.901 232.622 148.169 232.727 147.415 232.762L147.264 229.859C151.85 229.627 154.589 226.528 155.402 220.676C156.911 209.868 151.269 195.949 147.368 194.614C140.844 192.385 136.339 200.082 136.142 200.407L133.623 198.967C135.62 195.461 141.262 189.459 148.309 191.862C154.322 193.917 159.813 210.019 158.269 221.071C157.399 227.387 154.334 231.357 149.586 232.46Z" fill="#F7BF38"/>
<path d="M105.319 205.004C108.338 206.13 111.925 206.026 115.094 205.886C119.738 205.689 124.417 204.923 128.875 203.599C131.371 202.856 134.052 201.997 136.247 200.558C136.409 200.453 136.305 200.151 136.107 200.232C133.959 201.092 131.87 202.044 129.641 202.728C127.365 203.425 125.044 203.959 122.698 204.377C118.542 205.108 114.259 205.491 110.033 205.283C108.5 205.201 106.898 205.074 105.424 204.609C105.168 204.528 105.076 204.911 105.319 205.004Z" fill="#FF6724"/>
<path d="M108.988 244.638C119.808 246.078 131.138 244.719 141.204 240.459C144.152 239.205 147.171 237.754 149.737 235.803C149.911 235.664 149.76 235.385 149.562 235.502C147.066 236.871 144.64 238.299 142.04 239.46C139.451 240.61 136.769 241.55 134.029 242.293C128.77 243.732 123.349 244.475 117.904 244.592C114.932 244.65 111.96 244.522 109 244.243C108.721 244.208 108.733 244.603 108.988 244.638Z" fill="#FF6724"/>
<path d="M190.346 187.358H186.294C186.294 187.358 171.063 198.015 165.107 201.103C162.321 202.554 160.905 201.777 158.548 201.742C157.596 201.73 156.644 201.8 155.715 201.962C155.715 201.962 156.075 202.938 156.052 203.588C156.017 204.551 155.019 205.48 153.916 205.933H153.928C153.452 206.165 152.651 206.513 152.523 206.745C152.14 207.477 152.337 208.278 152.999 208.777C152.999 208.777 152.685 209.474 152.976 210.066C153.219 210.553 153.661 210.751 153.661 210.751C153.661 210.751 153.428 211.366 153.637 211.923C153.846 212.48 154.462 212.782 154.462 212.782C154.462 212.782 154.055 213.363 154.38 213.908C154.787 214.582 156.818 214.477 158.676 213.978C162.809 212.864 166.976 208.173 170.088 207.059L190.613 199.571H192.796L194.247 197.504V192.861L190.346 187.358Z" fill="#FFB082"/>
<path d="M216.56 187.068C214.157 192.129 205.914 196.239 198.24 199.571C197.033 190.887 192.761 186.325 189.197 184.316C190.114 183.701 191.066 183.074 191.948 182.435C193.202 181.553 194.641 180.264 195.338 178.825C196.801 175.806 195.837 151.311 194.409 145.46L193.283 134.582L198.519 123.042C202.547 125.469 205.728 128.406 208.317 132.121C219.056 147.596 222.945 173.624 216.56 187.068Z" fill="#BDDBF3"/>
<path d="M138.893 181.077C138.789 180.892 138.684 180.741 138.58 180.601C136.723 177.235 133.669 174.669 131.231 174.913C129.885 175.052 128.898 175.749 128.201 176.538C127.656 176.712 126.855 177.107 126.727 178.036C126.518 179.545 126.727 179.104 126.727 179.104C131.231 179.255 132.682 183.457 133.182 187.044C133.681 190.632 131.057 191.317 131.057 191.317C131.057 191.317 132.044 193.488 135.178 192.675C135.178 192.675 137.222 192.872 138.951 191.851C139.973 191.259 142.098 186.452 138.893 181.077Z" fill="#96C2E0"/>
<path d="M198.449 189.32C198.345 189.134 198.24 188.983 198.136 188.844C196.278 185.477 193.225 182.912 190.787 183.155C189.44 183.295 188.453 183.991 187.757 184.781C187.223 184.955 186.41 185.35 186.283 186.278C186.074 187.788 186.283 187.346 186.283 187.346C190.787 187.497 192.238 191.7 192.737 195.287C193.237 198.874 190.613 199.559 190.613 199.559C190.613 199.559 191.6 201.73 194.734 200.918C194.734 200.918 196.777 201.115 198.507 200.093C199.529 199.501 201.653 194.695 198.449 189.32Z" fill="#96C2E0"/>
<path d="M188.419 118.584C187.513 119.072 186.817 119.815 186.062 120.5C185.226 121.266 184.414 122.079 183.578 122.857C181.941 124.366 180.257 125.817 178.342 126.955C177.32 127.57 176.252 128.104 175.114 128.487C174.046 128.859 172.932 129.195 171.806 128.917C169.681 128.371 168.404 126.397 167.464 124.586C166.303 122.346 165.363 119.989 164.608 117.574C164.387 116.866 163.273 117.168 163.494 117.876C164.237 120.175 165.142 122.439 166.245 124.598C167.243 126.548 168.416 128.615 170.436 129.66C172.618 130.786 174.975 129.938 177.053 128.975C179.317 127.918 181.325 126.409 183.183 124.749C184.193 123.855 185.168 122.915 186.132 121.974C187.072 121.057 188.105 120.07 188.686 118.875C188.802 118.689 188.616 118.48 188.419 118.584Z" fill="#598FB5"/>
<path d="M169.879 132.783C169.995 132.783 170.111 132.759 170.204 132.713C170.308 132.678 170.401 132.62 170.482 132.539C170.564 132.458 170.622 132.365 170.657 132.26C170.715 132.156 170.738 132.051 170.726 131.935C170.715 131.854 170.703 131.784 170.691 131.703C170.645 131.552 170.575 131.436 170.471 131.32C170.413 131.273 170.355 131.227 170.297 131.181C170.157 131.099 170.018 131.064 169.867 131.064C169.751 131.064 169.635 131.088 169.542 131.134C169.438 131.169 169.345 131.227 169.263 131.308C169.182 131.39 169.124 131.482 169.089 131.587C169.031 131.691 169.008 131.796 169.02 131.912C169.031 131.993 169.043 132.063 169.054 132.144C169.101 132.295 169.171 132.411 169.275 132.527C169.333 132.574 169.391 132.62 169.449 132.667C169.588 132.736 169.728 132.783 169.879 132.783Z" fill="#598FB5"/>
<path d="M169.112 141.106C170.343 141.106 170.343 139.191 169.112 139.191C167.882 139.191 167.87 141.106 169.112 141.106Z" fill="#598FB5"/>
<path d="M151.176 140.038C150.073 142.453 149.272 145.019 148.669 147.608C148.251 149.384 147.96 151.207 147.775 153.029C147.67 154.004 147.612 154.98 147.577 155.955C147.566 156.407 147.542 156.872 147.554 157.325C147.566 157.882 147.728 158.416 147.844 158.962C149.261 165.683 150.398 172.556 150.793 179.429C150.909 181.518 150.99 183.655 150.805 185.744C150.781 186.034 151.223 186.023 151.257 185.744C151.49 183.991 151.49 182.215 151.443 180.462C151.385 177.676 151.199 174.878 150.874 172.115C150.445 168.504 149.864 164.905 149.145 161.341C148.959 160.436 148.761 159.53 148.564 158.625C148.309 157.452 148.309 156.338 148.367 155.154C148.448 153.227 148.669 151.311 149.005 149.407C149.551 146.296 150.294 143.173 151.548 140.271C151.641 140.004 151.281 139.795 151.176 140.038Z" fill="#396F91"/>
<path d="M193.689 140.549C193.701 142.07 193.933 143.614 194.061 145.123C194.316 148.107 194.595 151.102 194.839 154.085C195.408 161.074 195.826 168.109 195.535 175.121C195.408 178.221 194.328 181.1 191.449 182.517C191.182 182.644 191.414 183.027 191.681 182.911C193.852 181.959 195.21 180.137 195.814 177.85C196.255 176.178 196.348 174.378 196.406 172.66C196.464 170.872 196.452 169.085 196.418 167.308C196.255 160.296 195.617 153.273 194.781 146.319C194.548 144.415 194.189 142.488 194.131 140.572C194.107 140.282 193.689 140.282 193.689 140.549Z" fill="#598FB5"/>
<path d="M137.825 77.9984C134.017 79.4264 122.606 84.1514 123.534 85.7999C124.463 87.4484 194.676 78.4628 209.408 74.6317C209.408 74.6317 215.375 71.8107 189.87 71.3579C163.551 70.8819 150.108 73.3779 137.825 77.9984Z" fill="#F7BF38"/>
<path d="M145.812 77.8475C145.812 77.8475 145.813 63.4287 157.817 59.2261C169.67 55.07 186.329 57.775 189.672 71.9964L145.812 77.8475Z" fill="#F7BF38"/>
<path d="M145.72 75.8276C147.24 76.4081 148.912 76.6054 150.514 76.768C153.057 77.0234 155.622 77.093 158.188 77.093C164.945 77.0814 171.736 76.3616 178.353 74.9917C180.281 74.597 182.208 74.1326 184.1 73.587C185.957 73.0646 187.919 72.4725 189.638 71.567C189.951 71.4045 189.73 70.9285 189.405 71.0097C187.676 71.4277 185.981 72.0081 184.274 72.4957C182.591 72.9717 180.896 73.378 179.189 73.7379C175.776 74.4577 172.328 74.9685 168.857 75.3516C163.076 75.9785 157.166 76.2688 151.35 75.8973C149.551 75.7812 147.635 75.6999 145.905 75.1659C145.464 75.015 145.302 75.6651 145.72 75.8276Z" fill="#932318"/>
</svg>
