<svg width="599" height="113" viewBox="0 0 599 113" fill="none" xmlns="http://www.w3.org/2000/svg">
<path fill-rule="evenodd" clip-rule="evenodd" d="M480.809 10.1935C544.597 39.5743 584.215 110.861 596.63 179.984C608.256 244.71 559.612 301.248 544.584 365.27C527.901 436.346 561.215 529.798 503.904 575.025C446.81 620.079 364.012 564.935 291.283 565.158C219.949 565.377 138.084 621.419 82.8159 576.318C26.7892 530.598 69.4666 436.756 48.9573 367.411C29.8585 302.836 -48.6953 253.037 -32.0995 187.774C-15.5772 122.799 64.2787 98.9217 124.647 69.7597C174.503 45.6753 228.424 44.6746 283.035 35.5412C350.233 24.3027 418.927 -18.3097 480.809 10.1935Z" fill="#FFCB47"/>
</svg>
